HIERARCHY
ROOT Hips
{
	OFFSET 0 0 0
	CHANNELS 6 Xposition Yposition Zposition Yrotation Xrotation Zrotation
	JOINT Spine
	{
		OFFSET -0 7.6537 -2.43962
		CHANNELS 3 Yrotation Xrotation Zrotation
		JOINT Spine1
		{
			OFFSET -0 6.97908 0
			CHANNELS 3 Yrotation Xrotation Zrotation
			JOINT Spine2
			{
				OFFSET -0 6.97908 0
				CHANNELS 3 Yrotation Xrotation Zrotation
				JOINT Spine3
				{
					OFFSET -0 6.97908 0
					CHANNELS 3 Yrotation Xrotation Zrotation
					JOINT Neck
					{
						OFFSET -0 12.4536 3.43962
						CHANNELS 3 Yrotation Xrotation Zrotation
						JOINT Head
						{
							OFFSET -0 9.56712 0
							CHANNELS 3 Yrotation Xrotation Zrotation
							End Site
							{
								OFFSET 0 15 0
							}
						}
					}
					JOINT LeftShoulder
					{
						OFFSET 1.59452 1.70466 3.18904
						CHANNELS 3 Yrotation Xrotation Zrotation
						JOINT LeftArm
						{
							OFFSET 16.7394 0 0
							CHANNELS 3 Yrotation Xrotation Zrotation
							JOINT LeftForeArm
							{
								OFFSET 22.0792 0 0
								CHANNELS 3 Yrotation Xrotation Zrotation
								JOINT LeftHand
								{
									OFFSET 21.9518 0 0
									CHANNELS 3 Yrotation Xrotation Zrotation
									JOINT LeftHandThumb1
									{
										OFFSET 4.21471 0 2.29637
										CHANNELS 3 Yrotation Xrotation Zrotation
										JOINT LeftHandThumb2
										{
											OFFSET 3 0 1
											CHANNELS 3 Yrotation Xrotation Zrotation
											JOINT LeftHandThumb3
											{
												OFFSET 2.1 0 0
												CHANNELS 3 Yrotation Xrotation Zrotation
												JOINT LeftHandThumb4
												{
													OFFSET 1.305 0 0
													CHANNELS 3 Yrotation Xrotation Zrotation
													End Site
													{
														OFFSET -0 0 0
													}
												}
											}
										}
									}
									JOINT LeftHandIndex1
									{
										OFFSET 7.90742 0 3.16134
										CHANNELS 3 Yrotation Xrotation Zrotation
										JOINT LeftHandIndex2
										{
											OFFSET 3.5 0 0
											CHANNELS 3 Yrotation Xrotation Zrotation
											JOINT LeftHandIndex3
											{
												OFFSET 2.45 0 0
												CHANNELS 3 Yrotation Xrotation Zrotation
												JOINT LeftHandIndex4
												{
													OFFSET 1.5225 0 0
													CHANNELS 3 Yrotation Xrotation Zrotation
													End Site
													{
														OFFSET -0 0 0
													}
												}
											}
										}
									}
									JOINT LeftHandMiddle1
									{
										OFFSET 7.88523 0 0.8816
										CHANNELS 3 Yrotation Xrotation Zrotation
										JOINT LeftHandMiddle2
										{
											OFFSET 4.6 0 0
											CHANNELS 3 Yrotation Xrotation Zrotation
											JOINT LeftHandMiddle3
											{
												OFFSET 3.22 0 0
												CHANNELS 3 Yrotation Xrotation Zrotation
												JOINT LeftHandMiddle4
												{
													OFFSET 2.001 0 0
													CHANNELS 3 Yrotation Xrotation Zrotation
													End Site
													{
														OFFSET -0 0 0
													}
												}
											}
										}
									}
									JOINT LeftHandRing1
									{
										OFFSET 7.56303 0 -1.39814
										CHANNELS 3 Yrotation Xrotation Zrotation
										JOINT LeftHandRing2
										{
											OFFSET 3.75 0 0
											CHANNELS 3 Yrotation Xrotation Zrotation
											JOINT LeftHandRing3
											{
												OFFSET 2.625 0 0
												CHANNELS 3 Yrotation Xrotation Zrotation
												JOINT LeftHandRing4
												{
													OFFSET 1.63125 0 0
													CHANNELS 3 Yrotation Xrotation Zrotation
													End Site
													{
														OFFSET -0 0 0
													}
												}
											}
										}
									}
									JOINT LeftHandPinky1
									{
										OFFSET 6.94084 0 -3.67789
										CHANNELS 3 Yrotation Xrotation Zrotation
										JOINT LeftHandPinky2
										{
											OFFSET 2.875 0 0
											CHANNELS 3 Yrotation Xrotation Zrotation
											JOINT LeftHandPinky3
											{
												OFFSET 2.0125 0 0
												CHANNELS 3 Yrotation Xrotation Zrotation
												JOINT LeftHandPinky4
												{
													OFFSET 1.25062 0 0
													CHANNELS 3 Yrotation Xrotation Zrotation
													End Site
													{
														OFFSET -0 0 0
													}
												}
											}
										}
									}
								}
							}
						}
					}
					JOINT RightShoulder
					{
						OFFSET -1.59452 1.70466 3.18904
						CHANNELS 3 Yrotation Xrotation Zrotation
						JOINT RightArm
						{
							OFFSET -16.7394 0 0
							CHANNELS 3 Yrotation Xrotation Zrotation
							JOINT RightForeArm
							{
								OFFSET -22.0792 0 0
								CHANNELS 3 Yrotation Xrotation Zrotation
								JOINT RightHand
								{
									OFFSET -21.9518 0 0
									CHANNELS 3 Yrotation Xrotation Zrotation
									JOINT RightHandThumb1
									{
										OFFSET -4.13818 0 2.6379
										CHANNELS 3 Yrotation Xrotation Zrotation
										JOINT RightHandThumb2
										{
											OFFSET -3 0 1
											CHANNELS 3 Yrotation Xrotation Zrotation
											JOINT RightHandThumb3
											{
												OFFSET -2.1 0 0
												CHANNELS 3 Yrotation Xrotation Zrotation
												JOINT RightHandThumb4
												{
													OFFSET -1.305 0 0
													CHANNELS 3 Yrotation Xrotation Zrotation
													End Site
													{
														OFFSET -0 0 0
													}
												}
											}
										}
									}
									JOINT RightHandIndex1
									{
										OFFSET -6.97845 0 3.45401
										CHANNELS 3 Yrotation Xrotation Zrotation
										JOINT RightHandIndex2
										{
											OFFSET -3.5 0 0
											CHANNELS 3 Yrotation Xrotation Zrotation
											JOINT RightHandIndex3
											{
												OFFSET -2.45 0 0
												CHANNELS 3 Yrotation Xrotation Zrotation
												JOINT RightHandIndex4
												{
													OFFSET -1.5225 0 0
													CHANNELS 3 Yrotation Xrotation Zrotation
													End Site
													{
														OFFSET -0 0 0
													}
												}
											}
										}
									}
									JOINT RightHandMiddle1
									{
										OFFSET -7.47728 0 1.18452
										CHANNELS 3 Yrotation Xrotation Zrotation
										JOINT RightHandMiddle2
										{
											OFFSET -4.6 0 0
											CHANNELS 3 Yrotation Xrotation Zrotation
											JOINT RightHandMiddle3
											{
												OFFSET -3.22 0 0
												CHANNELS 3 Yrotation Xrotation Zrotation
												JOINT RightHandMiddle4
												{
													OFFSET -2.001 0 0
													CHANNELS 3 Yrotation Xrotation Zrotation
													End Site
													{
														OFFSET -0 0 0
													}
												}
											}
										}
									}
									JOINT RightHandRing1
									{
										OFFSET -7.67611 0 -1.08498
										CHANNELS 3 Yrotation Xrotation Zrotation
										JOINT RightHandRing2
										{
											OFFSET -3.75 0 0
											CHANNELS 3 Yrotation Xrotation Zrotation
											JOINT RightHandRing3
											{
												OFFSET -2.625 0 0
												CHANNELS 3 Yrotation Xrotation Zrotation
												JOINT RightHandRing4
												{
													OFFSET -1.63125 0 0
													CHANNELS 3 Yrotation Xrotation Zrotation
													End Site
													{
														OFFSET -0 0 0
													}
												}
											}
										}
									}
									JOINT RightHandPinky1
									{
										OFFSET -7.57495 0 -3.35448
										CHANNELS 3 Yrotation Xrotation Zrotation
										JOINT RightHandPinky2
										{
											OFFSET -2.875 0 0
											CHANNELS 3 Yrotation Xrotation Zrotation
											JOINT RightHandPinky3
											{
												OFFSET -2.0125 0 0
												CHANNELS 3 Yrotation Xrotation Zrotation
												JOINT RightHandPinky4
												{
													OFFSET -1.25062 0 0
													CHANNELS 3 Yrotation Xrotation Zrotation
													End Site
													{
														OFFSET -0 0 0
													}
												}
											}
										}
									}
								}
							}
						}
					}
				}
			}
		}
	}
	JOINT LeftUpLeg
	{
		OFFSET 9.56712 -3.18904 3
		CHANNELS 3 Yrotation Xrotation Zrotation
		JOINT LeftLeg
		{
			OFFSET -0 -42.4756 2.23233
			CHANNELS 3 Yrotation Xrotation Zrotation
			JOINT LeftFoot
			{
				OFFSET -0 -34.3506 -2.23233
				CHANNELS 3 Yrotation Xrotation Zrotation
				JOINT LeftToeBase
				{
					OFFSET -0 -9.50731 8.10572
					CHANNELS 3 Yrotation Xrotation Zrotation
					End Site
					{
						OFFSET 0 0 5
					}
				}
			}
		}
	}
	JOINT RightUpLeg
	{
		OFFSET -9.56712 -3.18904 3
		CHANNELS 3 Yrotation Xrotation Zrotation
		JOINT RightLeg
		{
			OFFSET -0 -42.4756 2.23233
			CHANNELS 3 Yrotation Xrotation Zrotation
			JOINT RightFoot
			{
				OFFSET -0 -34.3506 -2.23233
				CHANNELS 3 Yrotation Xrotation Zrotation
				JOINT RightToeBase
				{
					OFFSET -0 -9.50731 8.10572
					CHANNELS 3 Yrotation Xrotation Zrotation
					End Site
					{
						OFFSET 0 0 5
					}
				}
			}
		}
	}
}
MOTION
Frames: 4
Frame Time: 0.0047619
-4.331275 87.707715 21.687917 -16.488715 14.591093 9.840545 6.452825 2.008138 2.848629 5.750482 1.538487 2.004625 2.167423 1.234800 1.023461 1.095538 0.926373 0.252549 30.517223 0.514683 -7.908725 13.784137 -13.014796 -11.012677 13.008652 -1.311280 0.997889 14.299267 19.476941 -33.162540 -48.674805 10.231634 -6.181259 42.444667 -35.508569 -68.379680 6.489552 -14.188339 5.523673 7.372958 -16.366027 6.235430 -54.897806 5.081809 -10.699258 0.000001 0.000003 12.500004 0.000001 0.000003 12.500004 0.000000 -0.000003 9.999999 -0.000004 0.000003 5.000003 -0.000010 0.000013 12.495395 -0.000010 0.000013 12.495395 -0.000011 0.000006 9.996322 -0.000001 0.000003 4.998163 -0.000001 0.000005 -3.234002 -0.000001 0.000005 -3.234002 -0.000008 0.000009 -2.587200 -0.000013 0.000009 -1.293614 -0.000006 0.000004 -27.279962 -0.000006 0.000004 -27.279962 0.000005 0.000010 -21.823947 -0.000004 -0.000003 -10.911974 -168.637665 -0.013731 -179.861972 -4.091264 -1.204041 -5.798713 5.601830 -20.990675 -4.210089 43.000639 -15.103074 -13.308143 -80.381514 -14.906936 60.402258 8.995199 -5.628379 -10.571660 10.435872 -6.323664 -12.237462 -37.982686 9.563288 25.448456 -0.000003 -0.000006 -12.499998 -0.000003 -0.000006 -12.499998 0.000004 0.000004 -10.000000 0.000004 0.000000 -5.000002 -0.000003 -0.000006 -12.499998 -0.000003 -0.000006 -12.499998 0.000004 0.000004 -10.000000 0.000004 0.000000 -5.000002 -0.000003 -0.000006 -12.499998 -0.000003 -0.000006 -12.499998 0.000004 0.000004 -10.000000 0.000004 0.000000 -5.000002 -0.000027 0.000080 105.325894 -0.000027 0.000080 105.325894 -0.000053 -0.000038 84.260707 0.000022 -0.000032 42.130351 6.489552 -14.188339 5.523673 2.399011 -16.023632 -24.192126 0.000000 7.497869 0.000000 13.932506 6.168479 13.109453 0.000000 -13.142991 0.000000 -163.772264 -86.264559 112.867770 180.000000 79.801301 180.000000 -39.308092 -26.614062 14.617293 0.000000 -13.842416 0.000000
-4.328501 87.705115 21.694994 -16.512987 14.583997 9.842737 6.443682 2.003367 2.850318 5.742420 1.542481 2.009107 2.172956 1.227768 1.036359 1.096118 0.933438 0.237837 30.527887 0.461882 -7.856542 13.792620 -12.917974 -11.015717 13.015545 -1.321471 1.011200 14.304942 19.503387 -33.182986 -48.691932 10.207299 -6.176136 42.480201 -35.487611 -68.356835 6.489552 -14.188339 5.523673 7.372958 -16.366027 6.235430 -54.897806 5.081809 -10.699258 0.000001 0.000003 12.500004 0.000001 0.000003 12.500004 0.000000 -0.000003 9.999999 -0.000004 0.000003 5.000003 -0.000010 0.000013 12.495395 -0.000010 0.000013 12.495395 -0.000011 0.000006 9.996322 -0.000001 0.000003 4.998163 -0.000001 0.000005 -3.234002 -0.000001 0.000005 -3.234002 -0.000008 0.000009 -2.587200 -0.000013 0.000009 -1.293614 -0.000006 0.000004 -27.279962 -0.000006 0.000004 -27.279962 0.000005 0.000010 -21.823947 -0.000004 -0.000003 -10.911974 -168.637665 -0.013731 -179.861972 -4.063989 -1.152615 -5.801750 5.577340 -20.995621 -4.212187 42.971974 -15.035396 -13.336400 -80.373206 -14.902742 60.507462 8.995199 -5.628379 -10.571660 10.435872 -6.323664 -12.237462 -37.982686 9.563288 25.448456 -0.000003 -0.000006 -12.499998 -0.000003 -0.000006 -12.499998 0.000004 0.000004 -10.000000 0.000004 0.000000 -5.000002 -0.000003 -0.000006 -12.499998 -0.000003 -0.000006 -12.499998 0.000004 0.000004 -10.000000 0.000004 0.000000 -5.000002 -0.000003 -0.000006 -12.499998 -0.000003 -0.000006 -12.499998 0.000004 0.000004 -10.000000 0.000004 0.000000 -5.000002 -0.000027 0.000080 105.325894 -0.000027 0.000080 105.325894 -0.000053 -0.000038 84.260707 0.000022 -0.000032 42.130351 6.489552 -14.188339 5.523673 2.378694 -16.025119 -24.192155 0.000000 7.495054 0.000000 13.972395 6.204328 13.085924 0.000000 -13.173079 0.000000 -163.914047 -86.226517 113.006150 180.000000 79.809467 180.000000 -39.304790 -26.659491 14.614441 0.000000 -13.817505 0.000000
-4.332833 87.704346 21.699207 -16.540866 14.577505 9.842759 6.436576 2.011106 2.850926 5.737776 1.542878 2.008636 2.182888 1.232221 1.030299 1.112067 0.920725 0.244001 30.523838 0.452213 -7.837517 13.788514 -12.919531 -10.979563 13.004093 -1.296455 1.024941 14.337534 19.451605 -33.203779 -48.700966 10.244230 -6.195165 42.502217 -35.475999 -68.355797 6.489426 -14.188698 5.523816 7.372801 -16.366448 6.235592 -54.898055 5.081811 -10.698121 0.000004 -0.000004 12.500000 0.000004 -0.000004 12.500000 -0.000001 -0.000000 10.000003 -0.000002 -0.000002 4.999999 -0.000009 0.000003 12.498916 -0.000009 0.000003 12.498916 -0.000002 -0.000001 9.999140 0.000003 0.000003 4.999569 0.000001 -0.000005 -3.231784 0.000001 -0.000005 -3.231784 -0.000007 0.000007 -2.585436 -0.000013 0.000007 -1.292715 -0.000003 -0.000002 -27.279391 -0.000003 -0.000002 -27.279391 -0.000001 0.000010 -21.823529 -0.000005 -0.000003 -10.911740 -168.637719 -0.013731 -179.861972 -4.080793 -1.149353 -5.790747 5.602192 -20.943120 -4.220138 42.942017 -14.983449 -13.362075 -80.364822 -14.930739 60.583942 8.994963 -5.625512 -10.566390 10.435496 -6.320445 -12.231348 -37.927150 9.596822 25.455308 0.000007 0.000003 -12.500002 0.000007 0.000003 -12.500002 0.000003 0.000001 -9.999989 0.000003 0.000001 -5.000000 0.000007 0.000003 -12.500002 0.000007 0.000003 -12.500002 0.000003 0.000001 -9.999989 0.000003 0.000001 -5.000000 0.000007 0.000003 -12.500002 0.000007 0.000003 -12.500002 0.000003 0.000001 -9.999989 0.000003 0.000001 -5.000000 0.000001 0.000041 105.687231 0.000001 0.000041 105.687231 -0.000024 -0.000009 84.549799 0.000009 -0.000010 42.274892 6.489426 -14.188698 5.523816 2.384928 -16.012857 -24.192282 0.000000 7.494208 0.000000 13.979351 6.198103 13.066837 0.000000 -13.152415 0.000000 -164.178876 -86.197806 113.279066 180.000000 79.806674 180.000000 -39.281183 -26.667958 14.583758 0.000000 -13.813294 0.000000
-4.332225 87.704681 21.706836 -16.569939 14.567523 9.844532 6.444391 1.995266 2.867312 5.741600 1.562372 2.007878 2.180946 1.243927 1.026933 1.113255 0.921931 0.247805 30.519070 0.428710 -7.835748 13.781709 -12.903964 -10.937745 12.987300 -1.312952 1.027729 14.343462 19.466299 -33.237928 -48.708201 10.290962 -6.182987 42.550100 -35.497171 -68.378106 6.489426 -14.188698 5.523816 7.372801 -16.366448 6.235592 -54.898055 5.081811 -10.698121 0.000004 -0.000004 12.500000 0.000004 -0.000004 12.500000 -0.000001 -0.000000 10.000003 -0.000002 -0.000002 4.999999 -0.000009 0.000003 12.498916 -0.000009 0.000003 12.498916 -0.000002 -0.000001 9.999140 0.000003 0.000003 4.999569 0.000001 -0.000005 -3.231784 0.000001 -0.000005 -3.231784 -0.000007 0.000007 -2.585436 -0.000013 0.000007 -1.292715 -0.000003 -0.000002 -27.279391 -0.000003 -0.000002 -27.279391 -0.000001 0.000010 -21.823529 -0.000005 -0.000003 -10.911740 -168.637719 -0.013731 -179.861972 -4.082985 -1.150594 -5.788032 5.621021 -20.949827 -4.239278 42.936226 -14.986040 -13.387120 -80.351406 -14.897301 60.578351 8.994963 -5.625512 -10.566390 10.435496 -6.320445 -12.231348 -37.927150 9.596822 25.455308 0.000007 0.000003 -12.500002 0.000007 0.000003 -12.500002 0.000003 0.000001 -9.999989 0.000003 0.000001 -5.000000 0.000007 0.000003 -12.500002 0.000007 0.000003 -12.500002 0.000003 0.000001 -9.999989 0.000003 0.000001 -5.000000 0.000007 0.000003 -12.500002 0.000007 0.000003 -12.500002 0.000003 0.000001 -9.999989 0.000003 0.000001 -5.000000 0.000001 0.000041 105.687231 0.000001 0.000041 105.687231 -0.000024 -0.000009 84.549799 0.000009 -0.000010 42.274892 6.489426 -14.188698 5.523816 2.365587 -16.014634 -24.190868 0.000000 7.498802 0.000000 14.029859 6.208935 13.080697 0.000000 -13.177603 0.000000 -164.372337 -86.182811 113.479836 180.000000 79.811644 180.000000 -39.282842 -26.684541 14.634938 0.000000 -13.807075 0.000000
